<?xml version="1.0" standalone="no"?><!DOCTYPE svg PUBLIC "-//W3C//DTD SVG 1.1//EN" "http://www.w3.org/Graphics/SVG/1.1/DTD/svg11.dtd"><svg t="1747388326873" class="icon" viewBox="0 0 1024 1024" version="1.1" xmlns="http://www.w3.org/2000/svg" p-id="5314" xmlns:xlink="http://www.w3.org/1999/xlink" width="200" height="200"><path d="M969.767385 196.923077c15.714462 0 28.672 5.12 38.872615 15.281231 10.24 10.24 15.36 22.449231 15.36 36.706461v526.178462c0 14.257231-5.12 26.505846-15.36 36.706461s-23.158154 15.281231-38.872615 15.281231H312.004923c-3.426462 0-8.349538-0.669538-14.848-2.048a35.446154 35.446154 0 0 1-14.808615-6.104615l-1.024-1.024-1.024-1.024-261.907693-255.921231v-1.024C6.183385 549.691077 0 533.740308 0 512c0-10.200615 1.536-19.377231 4.608-27.529846a56.32 56.32 0 0 1 12.8-20.401231L279.236923 209.171692c1.378462-1.378462 4.765538-3.426462 10.24-6.144C296.329846 198.971077 304.836923 196.923077 315.076923 196.923077h654.690462z m-133.986462 458.830769c6.144-9.491692 7.168-17.998769 3.072-25.481846s-10.909538-15.950769-20.48-25.481846a1552.305231 1552.305231 0 0 0-47.576615-44.898462c-20.086154-18.313846-41.747692-38.045538-64.945231-59.076923 25.206154-23.827692 48.443077-45.922462 69.553231-66.323692 21.149538-20.361846 37.533538-36.352 49.112615-47.891692 8.192-7.483077 12.288-16.147692 12.288-25.993847 0-9.846154-4.450462-18.550154-13.312-25.993846a134.537846 134.537846 0 0 0-6.144-5.632 34.540308 34.540308 0 0 0-6.144-4.608c-9.531077-6.104615-18.904615-8.507077-28.120615-7.128615a44.307692 44.307692 0 0 0-25.048616 13.272615c-11.618462 11.539692-27.963077 27.175385-49.112615 46.867693-21.149538 19.731692-43.638154 40.802462-67.505231 63.251692-21.149538-19.692308-40.763077-38.242462-58.840615-55.571692-18.077538-17.329231-32.886154-31.783385-44.504616-43.323077-12.957538-13.627077-24.536615-21.425231-34.776615-23.473231a38.281846 38.281846 0 0 0-27.608615 4.056615 78.375385 78.375385 0 0 1-9.728 7.168 78.375385 78.375385 0 0 0-9.728 7.089231 25.324308 25.324308 0 0 0-8.664616 28.081231c3.072 11.224615 13.115077 25.324308 30.168616 42.299077l42.92923 40.290461c17.762462 16.659692 36.864 34.855385 57.304616 54.547693-21.819077 20.401231-41.944615 39.266462-60.337231 56.595692-18.432 17.329231-33.437538 31.783385-45.016615 43.323077a111.852308 111.852308 0 0 0-23.000616 29.577846c-5.828923 10.870154-5.316923 20.755692 1.536 29.538462 1.339077 1.378462 4.253538 4.096 8.664616 8.192 4.450462 4.096 7.325538 6.813538 8.704 8.152615 9.570462 7.483077 20.283077 10.043077 32.216615 7.640615 11.933538-2.363077 23.709538-9.334154 35.288615-20.873846 11.618462-11.579077 26.624-26.387692 45.016616-44.386461a3658.830769 3658.830769 0 0 1 60.376615-57.580308c23.158154 21.740308 44.662154 41.944615 64.433231 60.652308 19.771077 18.707692 35.84 34.146462 48.049231 46.395077 8.900923 8.152615 19.140923 13.587692 30.72 16.30523 11.579077 2.756923 21.149538 1.378462 28.632615-4.056615l4.096-4.096 7.68-8.664615c5.12-5.789538 7.325538-8.507077 6.656-8.152616-0.669538 0.354462 0.669538-1.181538 4.096-4.608z" fill="#000000" p-id="5315"></path></svg>