<?xml version="1.0" standalone="no"?><!DOCTYPE svg PUBLIC "-//W3C//DTD SVG 1.1//EN" "http://www.w3.org/Graphics/SVG/1.1/DTD/svg11.dtd"><svg t="1747463501098" class="icon" viewBox="0 0 1051 1024" version="1.1" xmlns="http://www.w3.org/2000/svg" p-id="6635" xmlns:xlink="http://www.w3.org/1999/xlink" width="205.2734375" height="200"><path d="M525.892635 0.008777A524.356648 524.356648 0 0 0 41.691071 316.056354a502.77969 502.77969 0 0 0 113.370457 557.782647 534.377134 534.377134 0 0 0 571.97224 110.883621 511.995611 511.995611 0 0 0 324.02008-472.93766 504.681388 504.681388 0 0 0-154.330106-361.907755A529.403462 529.403462 0 0 0 525.892635 0.008777z m0 930.808022a419.104979 419.104979 0 1 1 429.344892-419.031837 413.473027 413.473027 0 0 1-125.073214 296.299174 437.317394 437.317394 0 0 1-304.271678 122.732663zM523.698368 187.03346a60.781193 60.781193 0 0 0-61.439473 60.488624v349.473576a60.781193 60.781193 0 0 0 61.439473 58.513784 61.512616 61.512616 0 0 0 62.170896-58.513784V247.522084a61.439473 61.439473 0 0 0-62.170896-60.488624z m0 525.08807a63.926309 63.926309 0 0 0-43.885338 17.627278 61.805185 61.805185 0 0 0-17.554135 42.715062v3.364543a60.781193 60.781193 0 0 0 61.439473 58.513784 61.512616 61.512616 0 0 0 62.170896-58.513784v-3.364543a61.220047 61.220047 0 0 0-62.170896-60.34234z m0 0" fill="#5781FD" p-id="6636"></path></svg>